<mxfile host="app.diagrams.net" modified="2023-10-16T02:15:39.844Z" agent="Mozilla/5.0 (Windows NT 10.0; Win64; x64) AppleWebKit/537.36 (KHTML, like Gecko) Chrome/113.0.0.0 Safari/537.36 Edg/113.0.1774.50" etag="h-R50HEIb1ONpsBrZrrn" version="22.0.4" type="github">
  <diagram id="C5RBs43oDa-KdzZeNtuy" name="Page-1">
    <mxGraphModel dx="880" dy="484" grid="1" gridSize="10" guides="1" tooltips="1" connect="1" arrows="1" fold="1" page="1" pageScale="1" pageWidth="827" pageHeight="1169" math="0" shadow="0">
      <root>
        <mxCell id="WIyWlLk6GJQsqaUBKTNV-0" />
        <mxCell id="WIyWlLk6GJQsqaUBKTNV-1" parent="WIyWlLk6GJQsqaUBKTNV-0" />
        <mxCell id="7kVPPPa-6yRVLKqnAaMA-3" style="edgeStyle=orthogonalEdgeStyle;rounded=0;orthogonalLoop=1;jettySize=auto;html=1;" edge="1" parent="WIyWlLk6GJQsqaUBKTNV-1">
          <mxGeometry relative="1" as="geometry">
            <mxPoint x="405" y="140" as="targetPoint" />
            <mxPoint x="405" y="80" as="sourcePoint" />
          </mxGeometry>
        </mxCell>
        <mxCell id="7kVPPPa-6yRVLKqnAaMA-5" style="edgeStyle=orthogonalEdgeStyle;rounded=0;orthogonalLoop=1;jettySize=auto;html=1;" edge="1" parent="WIyWlLk6GJQsqaUBKTNV-1" source="7kVPPPa-6yRVLKqnAaMA-4" target="7kVPPPa-6yRVLKqnAaMA-6">
          <mxGeometry relative="1" as="geometry">
            <mxPoint x="405" y="240" as="targetPoint" />
          </mxGeometry>
        </mxCell>
        <mxCell id="7kVPPPa-6yRVLKqnAaMA-4" value="infut atas" style="shape=parallelogram;perimeter=parallelogramPerimeter;whiteSpace=wrap;html=1;fixedSize=1;" vertex="1" parent="WIyWlLk6GJQsqaUBKTNV-1">
          <mxGeometry x="345" y="140" width="120" height="40" as="geometry" />
        </mxCell>
        <mxCell id="7kVPPPa-6yRVLKqnAaMA-7" style="edgeStyle=orthogonalEdgeStyle;rounded=0;orthogonalLoop=1;jettySize=auto;html=1;" edge="1" parent="WIyWlLk6GJQsqaUBKTNV-1" source="7kVPPPa-6yRVLKqnAaMA-6" target="7kVPPPa-6yRVLKqnAaMA-8">
          <mxGeometry relative="1" as="geometry">
            <mxPoint x="405" y="300" as="targetPoint" />
          </mxGeometry>
        </mxCell>
        <mxCell id="7kVPPPa-6yRVLKqnAaMA-6" value="infut tinggi&amp;nbsp;" style="shape=parallelogram;perimeter=parallelogramPerimeter;whiteSpace=wrap;html=1;fixedSize=1;" vertex="1" parent="WIyWlLk6GJQsqaUBKTNV-1">
          <mxGeometry x="345" y="210" width="120" height="40" as="geometry" />
        </mxCell>
        <mxCell id="7kVPPPa-6yRVLKqnAaMA-14" style="edgeStyle=orthogonalEdgeStyle;rounded=0;orthogonalLoop=1;jettySize=auto;html=1;entryX=0.5;entryY=0;entryDx=0;entryDy=0;" edge="1" parent="WIyWlLk6GJQsqaUBKTNV-1" source="7kVPPPa-6yRVLKqnAaMA-8" target="7kVPPPa-6yRVLKqnAaMA-12">
          <mxGeometry relative="1" as="geometry" />
        </mxCell>
        <mxCell id="7kVPPPa-6yRVLKqnAaMA-8" value="luas=(3.8" style="rounded=1;whiteSpace=wrap;html=1;" vertex="1" parent="WIyWlLk6GJQsqaUBKTNV-1">
          <mxGeometry x="345" y="270" width="120" height="40" as="geometry" />
        </mxCell>
        <mxCell id="7kVPPPa-6yRVLKqnAaMA-11" value="setar" style="rounded=1;whiteSpace=wrap;html=1;" vertex="1" parent="WIyWlLk6GJQsqaUBKTNV-1">
          <mxGeometry x="360" y="20" width="100" height="60" as="geometry" />
        </mxCell>
        <mxCell id="7kVPPPa-6yRVLKqnAaMA-16" style="edgeStyle=orthogonalEdgeStyle;rounded=0;orthogonalLoop=1;jettySize=auto;html=1;" edge="1" parent="WIyWlLk6GJQsqaUBKTNV-1" source="7kVPPPa-6yRVLKqnAaMA-12" target="7kVPPPa-6yRVLKqnAaMA-17">
          <mxGeometry relative="1" as="geometry">
            <mxPoint x="405" y="450" as="targetPoint" />
          </mxGeometry>
        </mxCell>
        <mxCell id="7kVPPPa-6yRVLKqnAaMA-12" value="24" style="shape=parallelogram;perimeter=parallelogramPerimeter;whiteSpace=wrap;html=1;fixedSize=1;" vertex="1" parent="WIyWlLk6GJQsqaUBKTNV-1">
          <mxGeometry x="345" y="360" width="120" height="40" as="geometry" />
        </mxCell>
        <mxCell id="7kVPPPa-6yRVLKqnAaMA-15" style="edgeStyle=orthogonalEdgeStyle;rounded=0;orthogonalLoop=1;jettySize=auto;html=1;exitX=0.5;exitY=1;exitDx=0;exitDy=0;" edge="1" parent="WIyWlLk6GJQsqaUBKTNV-1" source="7kVPPPa-6yRVLKqnAaMA-12" target="7kVPPPa-6yRVLKqnAaMA-12">
          <mxGeometry relative="1" as="geometry" />
        </mxCell>
        <mxCell id="7kVPPPa-6yRVLKqnAaMA-17" value="" style="ellipse;whiteSpace=wrap;html=1;" vertex="1" parent="WIyWlLk6GJQsqaUBKTNV-1">
          <mxGeometry x="360" y="430" width="90" height="50" as="geometry" />
        </mxCell>
      </root>
    </mxGraphModel>
  </diagram>
</mxfile>
